<svg id="Layer_1" data-name="Layer 1" xmlns="http://www.w3.org/2000/svg" viewBox="0 0 926.74 232.9"><title>b-w-logo</title><path d="M299.18,126.2c-8-6.14-19.3-11.62-33.61-16.28-2.36-.77-4.8-1.5-7.29-2.22a108,108,0,0,0-27.92-40.15,6.22,6.22,0,0,0-2.7-9.36h0a66.81,66.81,0,0,0-16.43-4.49A108.14,108.14,0,0,0,114,48.84c-1.65-.89-3.29-1.76-4.91-2.59C95.66,39.42,83.79,35.3,73.79,34c-11.28-1.47-19.9.68-25.62,6.4S40.3,54.74,41.77,66C43.07,76,47.19,87.89,54,101.3c1,2.07,2.17,4.16,3.33,6.26,0,0,0,.09-.05.13-2.5.72-4.95,1.46-7.33,2.23-14.31,4.66-25.62,10.14-33.61,16.28-9,6.94-13.59,14.56-13.59,22.65s4.58,15.71,13.59,22.64c8,6.15,19.3,11.63,33.61,16.28,2.71.89,5.51,1.73,8.39,2.54A107.9,107.9,0,0,0,75.51,218a4.52,4.52,0,0,0,6.88-5.87,98.74,98.74,0,0,1-12.67-18.87c25.6,5.93,56.09,9.13,88.05,9.13s62.44-3.2,88-9.12a99.23,99.23,0,0,1-88,53.62A98.09,98.09,0,0,1,96.59,225.7,4.53,4.53,0,0,0,91,232.82a108.17,108.17,0,0,0,105.9,15.73c3.23,1.86,6.43,3.6,9.57,5.2,13.42,6.83,25.28,10.95,35.28,12.25a50.42,50.42,0,0,0,6.54.45c8.12,0,14.52-2.29,19.08-6.85a20.92,20.92,0,0,0,3.18-4.08,4.35,4.35,0,0,0-3-6.54l-.41-.06a4.4,4.4,0,0,0-4.43,2.12A11.7,11.7,0,0,1,261,253.2c-7.53,7.53-26.37,4.72-50.4-7.51-1.13-.57-2.26-1.17-3.4-1.77a109,109,0,0,0,45-43.53c.42.8,1.83,3.56,2.11,4.13a4.52,4.52,0,1,0,8.12-4c-.3-.6-3.77-7.27-5.34-10.05a.89.89,0,0,0,.08-.17c2.88-.81,5.68-1.65,8.39-2.54,14.31-4.65,25.62-10.13,33.61-16.28,9-6.93,13.59-14.55,13.59-22.64s-4.58-15.71-13.59-22.65ZM172.46,88.35a104.2,104.2,0,0,1,7.07,13.55,97.18,97.18,0,0,1-14.89-5.58,4.53,4.53,0,0,0-6.61,4.3l.37,5.87a17.08,17.08,0,0,1-.88,6.65l-10.93,32a58.41,58.41,0,0,1-4.7-19.45c-.42-7.27-2.69-18,5.12-22.66l11.12-7.2a4.51,4.51,0,0,0,1.9-5,6.42,6.42,0,0,1-.11-3.1,4.53,4.53,0,0,0-1-3.92,4.54,4.54,0,0,0,4,.4,6.56,6.56,0,0,1,3.24-.3,4.5,4.5,0,0,0,4.72-2.51l5.44-11.32c3.67-8.59,15-7.33,21.83-7.94a58.07,58.07,0,0,1,19.88,2.2L187.67,79.28A17.32,17.32,0,0,1,181.19,81l-5.25.33a4.52,4.52,0,0,0-3.48,7ZM62.08,97.2c-12.23-24-15-42.88-7.51-50.4,2.78-2.79,7.12-4.16,12.7-4.16,9.29,0,22,3.82,36.81,11.23a108.85,108.85,0,0,0-42,43.41A.59.59,0,0,0,62.08,97.2Zm-9.31,82c-25.64-8.35-40.95-19.69-40.95-30.33s15.31-22,41-30.33l.93-.29a108.37,108.37,0,0,0,.76,61.48l-1.69-.53Zm12.29,3.58A99.08,99.08,0,0,1,113.64,59q8.31,4.72,16.94,10.55a4.52,4.52,0,0,0,5.06-7.49q-5.91-4-11.71-7.49a99.1,99.1,0,0,1,65.2-.87l-2.62.16A21.89,21.89,0,0,0,168.2,66.21L164,74.88c-.55,0-1.08.1-1.61.19-1.41-.78-4.15-1.78-9.77-2.42a5.26,5.26,0,0,0-5.56,6.17c1.29,5.89,2.67,8.51,3.65,9.79,0,.41,0,.83,0,1.25l-8.67,5.61a21.87,21.87,0,0,0-9.93,19.72l.71,11.1a67.31,67.31,0,0,0,8.79,29.18,6.26,6.26,0,0,0,5.42,3.14,6.68,6.68,0,0,0,5.92-4.24l13.07-38.31a26,26,0,0,0,1.41-8.68c3.62,1.35,7.58,2.62,11,3.66l1.27,4.89a6.4,6.4,0,0,0,10.91,2.71l6.5-7.09a6.39,6.39,0,0,0-3.67-10.63l-4.9-.82c-1.42-3.21-3.13-6.89-4.9-10.28a26.05,26.05,0,0,0,7.92-2.42l30.56-15a99.09,99.09,0,0,1,29,108.22c-11.3-18.07-26.14-37.14-43.39-55.74a4.66,4.66,0,0,0-6-.75,4.52,4.52,0,0,0-.72,6.78c16.65,17.93,31,36.27,41.92,53.64-24.76,5.66-54.27,8.72-85.27,8.72-34.16,0-66.52-3.72-92.71-10.54Zm197.71-3.58-1.67.53a108.71,108.71,0,0,0,.75-61.48l.92.29c25.65,8.35,41,19.68,41,30.33S288.42,170.83,262.77,179.18Z" transform="translate(-2.77 -33.55)" style="fill:#3283ea"/><path d="M295.1,140.12c-8.1-3.63-19.94-5.48-30.33-.81s-16.86,14.74-19.53,23.2a.75.75,0,0,0,1.12.84l18.81-12.24c1.69,2.26,4.55,4.33,6.46,3.47s2.25-4.24,1.72-7L295,141.51a.74.74,0,0,0,.11-1.39Z" transform="translate(-2.77 -33.55)" style="fill:#3283ea"/><path d="M280.25,237c-6.66-1.05-13.12,1.85-17.18,5.18a.44.44,0,0,0,.28.78l13.28,0c.11,1.67.86,3.62,2.08,3.81s2.49-1.37,3.12-2.9l12.69,4a.44.44,0,0,0,.51-.65c-2.84-4.42-8.11-9.17-14.78-10.22Z" transform="translate(-2.77 -33.55)" style="fill:#3283ea"/><path d="M392,171.37v-108h15.68v108Z" transform="translate(-2.77 -33.55)" style="fill:#fff"/><path d="M430.17,171.37v-108h14.17l39.15,81.23,38.93-81.23h14.32V171.3H521.89V97.42l-34.88,74h-7.12L444.94,97.42v74Z" transform="translate(-2.77 -33.55)" style="fill:#fff"/><path d="M557.74,171.37v-108h14.17l39.15,81.23L650,63.37h14.32V171.3H649.46V97.42l-34.87,74h-7.13l-35-73.95v74Z" transform="translate(-2.77 -33.55)" style="fill:#fff"/><path d="M686.81,171.37v-108h15.68v108Z" transform="translate(-2.77 -33.55)" style="fill:#fff"/><path d="M769.16,173.62a51.92,51.92,0,0,1-20-3.78,44.8,44.8,0,0,1-15.9-11.07,51.06,51.06,0,0,1-10.5-17.7,69.71,69.71,0,0,1-3.75-23.7q0-17.46,6.37-30A46.41,46.41,0,0,1,743.06,68q11.33-6.79,26.1-6.79,19.05,0,30.42,8.85T815.06,94.5l-15.9,2.85A32.41,32.41,0,0,0,788.51,81.9q-7.35-5.78-18.45-5.85Q758.59,76,751,81.15a31.46,31.46,0,0,0-11.43,14.51,57.93,57.93,0,0,0-3.9,21.71A55.5,55.5,0,0,0,739.39,139a31.25,31.25,0,0,0,11.51,14.44q7.68,5.18,19.16,5.25a32,32,0,0,0,15.86-3.41,26.15,26.15,0,0,0,10.54-10.47,44.11,44.11,0,0,0,5-16.95h-21v-12.6h37.65c.1.9.17,2.09.22,3.57s.08,2.41.08,2.81a60,60,0,0,1-5.78,26.77,43.69,43.69,0,0,1-16.8,18.49Q784.84,173.63,769.16,173.62Z" transform="translate(-2.77 -33.55)" style="fill:#fff"/><path d="M878.51,173.62q-16.2,0-27.6-7.08a46,46,0,0,1-17.44-19.77q-6-12.66-6-29.4t6-29.4a46.08,46.08,0,0,1,17.44-19.76q11.4-7.08,27.6-7.09t27.56,7.09A45.69,45.69,0,0,1,923.51,88q6,12.68,6,29.4t-6,29.4a45.66,45.66,0,0,1-17.44,19.77Q894.64,173.62,878.51,173.62Zm0-14.92q11.47.15,19.09-5.06A31.75,31.75,0,0,0,909,139.09a57,57,0,0,0,3.82-21.72A56.35,56.35,0,0,0,909,95.74,31.49,31.49,0,0,0,897.6,81.3q-7.62-5.17-19.09-5.25t-19.09,5A31.47,31.47,0,0,0,848,95.62a58.26,58.26,0,0,0-3.9,21.75A55.5,55.5,0,0,0,847.84,139a31.25,31.25,0,0,0,11.51,14.44Q867,158.63,878.51,158.7Z" transform="translate(-2.77 -33.55)" style="fill:#fff"/><path d="M406.22,242.64,393.35,203h6l11,33.79L421.4,203h6l-12.87,39.6Z" transform="translate(-2.77 -33.55)" style="fill:#b3b3b3"/><path d="M432,242.64V203h5.74v39.6Z" transform="translate(-2.77 -33.55)" style="fill:#b3b3b3"/><path d="M460.39,243.46A19.35,19.35,0,0,1,452.7,242a14.35,14.35,0,0,1-5.63-4.21,13.92,13.92,0,0,1-2.88-6.5l6-.91A9.4,9.4,0,0,0,454,236a11.44,11.44,0,0,0,6.74,2,12.51,12.51,0,0,0,4.4-.75,7.75,7.75,0,0,0,3.23-2.17,5,5,0,0,0,1.22-3.4,4.54,4.54,0,0,0-.37-1.9,4.41,4.41,0,0,0-1-1.44,6.29,6.29,0,0,0-1.57-1.07,12.67,12.67,0,0,0-2-.79l-10.15-3a23.51,23.51,0,0,1-3-1.15,10.88,10.88,0,0,1-2.82-1.84,8.56,8.56,0,0,1-2.08-2.83,9.62,9.62,0,0,1-.8-4.11,10.09,10.09,0,0,1,1.89-6.2,11.52,11.52,0,0,1,5.1-3.85,19,19,0,0,1,7.2-1.31,18.54,18.54,0,0,1,7.19,1.43,13.72,13.72,0,0,1,5.28,4,14.57,14.57,0,0,1,2.91,6.22l-6.16,1a8.33,8.33,0,0,0-1.76-3.84,9,9,0,0,0-3.31-2.47,10.44,10.44,0,0,0-4.23-.89,10.32,10.32,0,0,0-4,.65,7.09,7.09,0,0,0-2.91,2,4.47,4.47,0,0,0-1.09,3,3.74,3.74,0,0,0,1,2.67,6.81,6.81,0,0,0,2.38,1.61,23,23,0,0,0,2.82,1l7.31,2.07c.92.25,2,.6,3.13,1a14.74,14.74,0,0,1,3.38,1.8,9.2,9.2,0,0,1,2.71,3.07,9.73,9.73,0,0,1,1.07,4.79,11,11,0,0,1-1.21,5.27,11.18,11.18,0,0,1-3.31,3.8,15.25,15.25,0,0,1-4.86,2.29A21.11,21.11,0,0,1,460.39,243.46Z" transform="translate(-2.77 -33.55)" style="fill:#b3b3b3"/><path d="M478.68,242.64,491.55,203h8.27l12.87,39.6h-6L494.87,206.5h1.49l-11.72,36.14Zm6.68-8.94v-5.39H506v5.39Z" transform="translate(-2.77 -33.55)" style="fill:#b3b3b3"/><path d="M545.17,243.46a18.74,18.74,0,0,1-10.12-2.6,16.8,16.8,0,0,1-6.39-7.24,27.28,27.28,0,0,1,0-21.56,16.77,16.77,0,0,1,6.39-7.25,18.83,18.83,0,0,1,10.12-2.6A17.23,17.23,0,0,1,562.77,215l-5.83,1.57a12.3,12.3,0,0,0-4.11-6.52,11.86,11.86,0,0,0-7.66-2.36,12.28,12.28,0,0,0-7,1.89,11.6,11.6,0,0,0-4.22,5.31,20.48,20.48,0,0,0-1.42,8,20.2,20.2,0,0,0,1.39,7.95,11.54,11.54,0,0,0,4.23,5.3,12.29,12.29,0,0,0,7,1.9,11.81,11.81,0,0,0,7.66-2.38,12.32,12.32,0,0,0,4.11-6.5l5.83,1.56a17.2,17.2,0,0,1-17.6,12.79Z" transform="translate(-2.77 -33.55)" style="fill:#b3b3b3"/><path d="M585.35,243.46a18.74,18.74,0,0,1-10.12-2.6,16.89,16.89,0,0,1-6.4-7.24,27.4,27.4,0,0,1,0-21.56,16.86,16.86,0,0,1,6.4-7.25,21,21,0,0,1,20.23,0,16.77,16.77,0,0,1,6.39,7.25,27.51,27.51,0,0,1,0,21.56,16.8,16.8,0,0,1-6.39,7.24A18.78,18.78,0,0,1,585.35,243.46Zm0-5.47a11.77,11.77,0,0,0,7-1.86,11.55,11.55,0,0,0,4.19-5.33,23.27,23.27,0,0,0,0-15.9,11.54,11.54,0,0,0-4.19-5.29,12.23,12.23,0,0,0-7-1.92,11.82,11.82,0,0,0-7,1.84,11.45,11.45,0,0,0-4.19,5.33,21.09,21.09,0,0,0-1.43,8,20.4,20.4,0,0,0,1.37,7.93,11.44,11.44,0,0,0,4.22,5.29A12.44,12.44,0,0,0,585.35,238Z" transform="translate(-2.77 -33.55)" style="fill:#b3b3b3"/><path d="M609.55,242.64V203h5.83l19.5,29.42V203h5.83v39.6h-5.83l-19.5-29.45v29.45Z" transform="translate(-2.77 -33.55)" style="fill:#b3b3b3"/><path d="M662.76,243.46a19.35,19.35,0,0,1-7.69-1.47,14.35,14.35,0,0,1-5.63-4.21,13.92,13.92,0,0,1-2.88-6.5l6-.91a9.4,9.4,0,0,0,3.79,5.65,11.44,11.44,0,0,0,6.74,2,12.47,12.47,0,0,0,4.4-.75,7.75,7.75,0,0,0,3.23-2.17,5,5,0,0,0,1.23-3.4,4.54,4.54,0,0,0-.38-1.9,4.41,4.41,0,0,0-1-1.44,6.29,6.29,0,0,0-1.57-1.07,12.31,12.31,0,0,0-2-.79l-10.15-3a23.51,23.51,0,0,1-3-1.15,10.88,10.88,0,0,1-2.82-1.84,8.71,8.71,0,0,1-2.08-2.83,9.62,9.62,0,0,1-.8-4.11,10.09,10.09,0,0,1,1.89-6.2,11.52,11.52,0,0,1,5.1-3.85,19,19,0,0,1,7.2-1.31,18.54,18.54,0,0,1,7.19,1.43,13.83,13.83,0,0,1,5.29,4,14.68,14.68,0,0,1,2.9,6.22l-6.16,1a8.33,8.33,0,0,0-1.76-3.84,9.08,9.08,0,0,0-3.3-2.47,10.52,10.52,0,0,0-4.24-.89,10.32,10.32,0,0,0-4,.65,7.09,7.09,0,0,0-2.91,2,4.47,4.47,0,0,0-1.09,3,3.74,3.74,0,0,0,1,2.67,6.91,6.91,0,0,0,2.38,1.61,23.57,23.57,0,0,0,2.82,1l7.32,2.07c.91.25,2,.6,3.12,1a14.74,14.74,0,0,1,3.38,1.8,9.2,9.2,0,0,1,2.71,3.07,9.73,9.73,0,0,1,1.07,4.79,11,11,0,0,1-1.21,5.27,11.18,11.18,0,0,1-3.31,3.8,15.15,15.15,0,0,1-4.86,2.29A21.11,21.11,0,0,1,662.76,243.46Z" transform="translate(-2.77 -33.55)" style="fill:#b3b3b3"/><path d="M699.58,243.46a17.16,17.16,0,0,1-8.21-1.91,14,14,0,0,1-5.57-5.36,16,16,0,0,1-2-8.13v-25l5.83,0v24.72a10.84,10.84,0,0,0,.85,4.45,9.39,9.39,0,0,0,2.28,3.22,9.65,9.65,0,0,0,3.21,1.95,10.24,10.24,0,0,0,7.26,0,9.93,9.93,0,0,0,3.2-2,9.29,9.29,0,0,0,2.27-3.21,11,11,0,0,0,.84-4.43V203h5.83v25a15.84,15.84,0,0,1-2,8.11,13.87,13.87,0,0,1-5.57,5.38A17.13,17.13,0,0,1,699.58,243.46Z" transform="translate(-2.77 -33.55)" style="fill:#b3b3b3"/><path d="M723.62,242.64V203h5.75v34.18h17.92v5.42Z" transform="translate(-2.77 -33.55)" style="fill:#b3b3b3"/><path d="M756.34,242.64V208.46H743.17V203h32.09v5.42H762.09v34.18Z" transform="translate(-2.77 -33.55)" style="fill:#b3b3b3"/><path d="M775.81,242.64,788.68,203H797l12.87,39.6h-6L792,206.5h1.48l-11.71,36.14Zm6.68-8.94v-5.39h20.69v5.39Z" transform="translate(-2.77 -33.55)" style="fill:#b3b3b3"/><path d="M814.78,242.64V203h5.83l19.5,29.42V203h5.83v39.6h-5.83l-19.5-29.45v29.45Z" transform="translate(-2.77 -33.55)" style="fill:#b3b3b3"/><path d="M870.16,243.46a18.76,18.76,0,0,1-10.12-2.6,16.93,16.93,0,0,1-6.39-7.24,27.4,27.4,0,0,1,0-21.56,16.9,16.9,0,0,1,6.39-7.25,18.85,18.85,0,0,1,10.12-2.6,18.05,18.05,0,0,1,11.35,3.47,17.85,17.85,0,0,1,6.25,9.32l-5.83,1.57a12.3,12.3,0,0,0-4.11-6.52,11.86,11.86,0,0,0-7.66-2.36,12.28,12.28,0,0,0-7,1.89,11.67,11.67,0,0,0-4.22,5.31,23.19,23.19,0,0,0,0,15.9,11.56,11.56,0,0,0,4.24,5.3,12.26,12.26,0,0,0,7,1.9,11.81,11.81,0,0,0,7.66-2.38,12.32,12.32,0,0,0,4.11-6.5l5.83,1.56a17.2,17.2,0,0,1-17.6,12.79Z" transform="translate(-2.77 -33.55)" style="fill:#b3b3b3"/><path d="M901.71,242.64V226.28L888.31,203H895l9.59,16.63,9.6-16.63h6.71l-13.39,23.24v16.36Z" transform="translate(-2.77 -33.55)" style="fill:#b3b3b3"/></svg>