<svg id="artwork" height="512" viewBox="0 0 64 64" width="512" xmlns="http://www.w3.org/2000/svg"><path d="m33.25 63.5h-2.5a8.51 8.51 0 0 1 -8.5-8.5 1.5 1.5 0 0 1 1.5-1.5h16.5a1.5 1.5 0 0 1 1.5 1.5 8.51 8.51 0 0 1 -8.5 8.5zm-7.792-7a5.509 5.509 0 0 0 5.292 4h2.5a5.509 5.509 0 0 0 5.292-4z"/><path d="m57.456 55.956h-5.032a31.485 31.485 0 1 0 -34.824 4.059 1.5 1.5 0 0 0 1.374-2.668 28.517 28.517 0 1 1 31.495-3.666v-4.71a1.5 1.5 0 0 0 -3 0v8.485a1.5 1.5 0 0 0 1.5 1.5h8.485a1.5 1.5 0 0 0 0-3z"/><path d="m56 33.5h-3a1.5 1.5 0 0 1 0-3h3a1.5 1.5 0 0 1 0 3z"/><path d="m11 33.5h-3a1.5 1.5 0 0 1 0-3h3a1.5 1.5 0 0 1 0 3z"/><path d="m45.786 18.214a1.5 1.5 0 0 1 0-2.121l2.124-2.124a1.5 1.5 0 1 1 2.121 2.121l-2.124 2.124a1.5 1.5 0 0 1 -2.121 0z"/><path d="m13.969 50.031a1.5 1.5 0 0 1 0-2.121l2.124-2.124a1.5 1.5 0 1 1 2.121 2.121l-2.124 2.124a1.5 1.5 0 0 1 -2.121 0z"/><path d="m32 12.5a1.5 1.5 0 0 1 -1.5-1.5v-3a1.5 1.5 0 0 1 3 0v3a1.5 1.5 0 0 1 -1.5 1.5z"/><path d="m16.093 18.214-2.124-2.124a1.5 1.5 0 1 1 2.121-2.121l2.124 2.124a1.5 1.5 0 1 1 -2.121 2.121z"/><g fill="#e94d4e"><circle cx="32" cy="32" r="2.5"/><path d="m32 15.5a16.49 16.49 0 0 0 -9 30.314v3.186a1.5 1.5 0 0 0 1.5 1.5h6v-13.213a5.5 5.5 0 1 1 3 0v13.213h6a1.5 1.5 0 0 0 1.5-1.5v-3.186a16.49 16.49 0 0 0 -9-30.314z"/></g></svg>