<?xml version="1.0" encoding="UTF-8"?>
<svg xmlns="http://www.w3.org/2000/svg" id="Icon" width="512" height="512" viewBox="0 0 64 64"><path d="M62,31.2207a1.50039,1.50039,0,0,0-1.5,1.5V51.96875a1.4925,1.4925,0,0,1-.94336,1.39258L43.5,59.78455V30.001a1.5,1.5,0,0,0-3,0V59.78473l-9.22858-3.6919A13.59213,13.59213,0,0,0,35.5,46.27246,13.44874,13.44874,0,0,0,29.80469,35.249,13.27449,13.27449,0,0,0,23.5,32.86646V10.21527l3.94238,1.5777a1.50007,1.50007,0,0,0,1.11524-2.78516L23.29688,6.90234a3.49736,3.49736,0,0,0-2.59766.002L3.3291,13.85352A4.47609,4.47609,0,0,0,.5,18.03125V59.0459a3.50208,3.50208,0,0,0,4.80078,3.25l9.73554-3.89533,3.78106,3.78107a4.49774,4.49774,0,0,0,6.36426,0l3.78149-3.78094,11.738,4.696a3.49759,3.49759,0,0,0,2.59961-.001L60.6709,56.14648A4.47609,4.47609,0,0,0,63.5,51.96875V32.7207A1.50039,1.50039,0,0,0,62,31.2207Zm-57.81348,28.29A.50081.50081,0,0,1,3.5,59.0459V18.03125a1.4925,1.4925,0,0,1,.94336-1.39258L20.5,10.21545v22.651A13.27449,13.27449,0,0,0,14.19531,35.249,13.44874,13.44874,0,0,0,8.5,46.27246a14.12264,14.12264,0,0,0,4.22839,9.82019Zm18.87305.54981a1.53505,1.53505,0,0,1-2.12012,0C16.63014,55.046,11.5,52.7868,11.5,46.27246a10.5,10.5,0,1,1,21,0C32.5,52.78715,27.36271,55.05365,23.05957,60.06055Z"/><path d="M22,40.77246a5.5,5.5,0,1,0,5.5,5.5A5.50685,5.50685,0,0,0,22,40.77246Zm0,8a2.5,2.5,0,1,1,2.5-2.5A2.50231,2.50231,0,0,1,22,48.77246Z"/><path d="M58.8584,3.88965a11.81349,11.81349,0,0,1-10.00684-1.124A14.907,14.907,0,0,0,35.21484,1.63574,4.47781,4.47781,0,0,0,32.5,5.77344v17.0332a3.50228,3.50228,0,0,0,4.6416,3.30371,11.81692,11.81692,0,0,1,10.00684,1.124A14.01691,14.01691,0,0,0,55.01367,29.499a14.80815,14.80815,0,0,0,5.77149-1.13476A4.47781,4.47781,0,0,0,63.5,24.22656V7.19336A3.50264,3.50264,0,0,0,58.8584,3.88965Zm.585,13.74316a8.55444,8.55444,0,0,1-3.29981.66211,17.35592,17.35592,0,0,1-6-1.46679,31.297,31.297,0,0,0-4.89324-1.49823,25.5765,25.5765,0,0,0-7.181,7.31756,1.25008,1.25008,0,0,1-2.13868-1.29492,27.50788,27.50788,0,0,1,7.30664-7.6709c-1.28515-1.7334-4.08984-5.21-6.79589-6.56348a1.24992,1.24992,0,0,1,1.11718-2.23632c3.658,1.829,7.17151,6.55639,8.18811,8.0003a33.75849,33.75849,0,0,1,5.26893,1.60321c2.7871,1.03711,4.9873,1.85742,7.47851.835a1.24987,1.24987,0,1,1,.94922,2.3125Z" style="fill:#e94d4e"/></svg>
